<?xml version="1.0" encoding="iso-8859-1"?>
<!-- Generator: Adobe Illustrator 19.0.0, SVG Export Plug-In . SVG Version: 6.00 Build 0)  -->
<svg version="1.1" id="Capa_1" xmlns="http://www.w3.org/2000/svg" xmlns:xlink="http://www.w3.org/1999/xlink" x="0px" y="0px"
	 viewBox="0 0 512 512" style="enable-background:new 0 0 512 512;" xml:space="preserve">
<circle style="fill:#744EAA;" cx="447.093" cy="407.012" r="58.756"/>
<path style="fill:#67449E;" d="M453.754,464.24c-31.605-7.357-51.262-38.942-43.905-70.546
	c5.513-23.686,24.634-40.659,47.173-44.582c-30.441-5.246-60.059,14.11-67.151,44.582c-7.357,31.605,12.299,63.189,43.905,70.546
	c7.919,1.844,15.837,1.99,23.374,0.677C456.019,464.722,454.887,464.503,453.754,464.24z"/>
<path style="fill:#93603E;" d="M175.808,171.66c1.461,0.34,2.892,0.743,4.3,1.185c0.576-2.459,1.315-4.835,2.176-7.141
	C123.266,98.615,49.867,73.93,23.226,67.476c-5.641-1.366-11.088,2.585-11.551,8.347l-2.89,36.022
	c-0.395,4.926,3.844,9.058,8.745,8.49c61.132-7.083,117.801,24.051,153.543,50.441C172.65,171.011,174.228,171.292,175.808,171.66z"
	/>
<path style="fill:#7F573C;" d="M153.181,136.734C117.817,114.022,69.273,92.636,17.53,98.632c-3.042,0.352-5.827-1.107-7.409-3.442
	l-1.336,16.657c-0.395,4.926,3.844,9.058,8.745,8.49c61.132-7.083,117.801,24.051,153.543,50.441
	c1.575,0.234,3.155,0.515,4.733,0.883c1.461,0.34,2.892,0.742,4.3,1.185c0.576-2.459,1.315-4.835,2.176-7.141
	C172.867,154.999,163.082,145.379,153.181,136.734z"/>
<path style="fill:#3BBC56;" d="M89.411,283.431c7.481-9.12,17.57-15.784,28.858-19.073c1.826,2.15-19.885-19.315-12.481-51.121
	c5.202-22.348,22.612-38.667,43.537-43.569c-27.561-9.1-66.961-11.524-108.213,13.46c-3.581,2.169-4.316,7.065-1.476,10.141
	c5.783,6.265,16.285,16.344,30.436,24.603c3.709,2.165,4.211,7.255,1.005,10.112c-11.695,10.422-22.539,24.201-31.328,42.386
	c-1.822,3.768,0.231,8.28,4.286,9.313C53.04,281.975,71.21,285.01,89.411,283.431z"/>
<path style="fill:#30AA44;" d="M65.236,279.682c-4.055-1.032-6.108-5.545-4.286-9.313c8.789-18.185,19.632-31.964,31.328-42.386
	c3.206-2.857,2.703-7.948-1.005-10.113c-14.151-8.257-24.653-18.338-30.436-24.603c-2.84-3.076-2.104-7.972,1.476-10.141
	c20.171-12.216,39.895-17.869,58.013-19.402c-23.365-1.997-50.853,2.225-79.214,19.402c-3.581,2.169-4.316,7.065-1.476,10.141
	c5.783,6.265,16.285,16.346,30.436,24.603c3.709,2.165,4.211,7.256,1.005,10.113c-11.695,10.422-22.538,24.201-31.328,42.386
	c-1.822,3.768,0.231,8.28,4.286,9.313c8.984,2.288,27.093,5.312,45.252,3.758C79.298,282.684,70.623,281.053,65.236,279.682z"/>
<path style="fill:#3BBC56;" d="M250.107,129.345c3.322,0.773,6.505,1.827,9.543,3.111c7.478-11.597,18.836-20.095,31.836-24.12
	c3.326-23.201-3.847-46.545-7.288-57.333c-1.271-3.988-5.898-5.769-9.551-3.726c-17.631,9.854-30.742,21.495-40.451,33.788
	c-2.661,3.37-7.773,3.17-10.154-0.403c-9.083-13.636-19.768-23.521-26.366-28.922c-3.24-2.652-8.083-1.627-10.036,2.077
	c-22.832,43.307-16.703,82.974-5.64,110.038C192.695,137.913,221.888,122.777,250.107,129.345z"/>
<path style="fill:#30AA44;" d="M205.414,58.604c-2.89-2.763-5.544-5.066-7.738-6.864c-3.24-2.652-8.083-1.627-10.036,2.077
	c-22.832,43.307-16.703,82.974-5.64,110.038c3.153-7.649,7.923-14.348,13.794-19.838C190.108,120.15,190.068,90.467,205.414,58.604z
	"/>
<circle style="fill:#744EAA;" cx="307.345" cy="162.915" r="58.756"/>
<path style="fill:#67449E;" d="M314.001,220.135c-31.605-7.357-51.262-38.942-43.905-70.546
	c5.514-23.686,24.634-40.659,47.173-44.582c-30.441-5.246-60.059,14.11-67.151,44.582c-7.357,31.605,12.299,63.189,43.905,70.546
	c7.919,1.844,15.837,1.99,23.374,0.677C316.264,220.618,315.133,220.398,314.001,220.135z"/>
<circle style="fill:#744EAA;" cx="242.767" cy="353.707" r="58.756"/>
<path style="fill:#67449E;" d="M249.422,410.936c-31.605-7.357-51.262-38.942-43.905-70.546
	c5.514-23.686,24.634-40.659,47.173-44.582c-30.441-5.246-60.059,14.11-67.151,44.582c-7.357,31.605,12.299,63.189,43.905,70.546
	c7.919,1.844,15.837,1.99,23.374,0.677C251.686,411.418,250.554,411.199,249.422,410.936z"/>
<circle style="fill:#744EAA;" cx="132.397" cy="319.918" r="58.756"/>
<path style="fill:#67449E;" d="M139.058,377.145c-31.605-7.357-51.262-38.942-43.905-70.546
	c5.514-23.686,24.634-40.659,47.173-44.582c-30.441-5.246-60.059,14.11-67.152,44.582c-7.357,31.605,12.299,63.189,43.905,70.546
	c7.919,1.844,15.837,1.99,23.374,0.677C141.321,377.628,140.189,377.409,139.058,377.145z"/>
<circle style="fill:#553788;" cx="235.225" cy="183.7" r="58.756"/>
<path style="fill:#462E7A;" d="M241.906,240.93c-31.605-7.357-51.262-38.942-43.905-70.546c5.513-23.682,24.628-40.652,47.161-44.58
	c-30.446-5.254-60.073,14.103-67.167,44.58c-7.357,31.605,12.299,63.189,43.905,70.546c7.924,1.844,15.846,1.99,23.385,0.675
	C244.16,241.411,243.033,241.193,241.906,240.93z"/>
<circle style="fill:#9266CC;" cx="318.948" cy="240.996" r="58.316"/>
<path style="fill:#7B54BA;" d="M325.728,297.791c-31.369-7.302-50.879-38.651-43.577-70.02
	c5.467-23.481,24.408-40.315,46.744-44.234c-30.249-5.265-59.701,13.956-66.749,44.234c-7.302,31.369,12.208,62.718,43.577,70.02
	c7.887,1.836,15.773,1.974,23.276,0.657C327.91,298.258,326.819,298.045,325.728,297.791z"/>
<circle style="fill:#9266CC;" cx="408.963" cy="322.178" r="58.316"/>
<path style="fill:#7B54BA;" d="M415.75,378.979c-31.369-7.302-50.879-38.651-43.577-70.02c5.466-23.481,24.408-40.315,46.744-44.234
	c-30.249-5.265-59.701,13.956-66.749,44.234c-7.302,31.369,12.208,62.718,43.577,70.02c7.887,1.835,15.773,1.974,23.276,0.657
	C417.931,379.447,416.841,379.233,415.75,378.979z"/>
<circle style="fill:#9266CC;" cx="352.467" cy="399.34" r="58.316"/>
<path style="fill:#7B54BA;" d="M359.246,456.138c-31.369-7.302-50.879-38.651-43.577-70.02
	c5.466-23.481,24.408-40.315,46.744-44.234c-30.249-5.265-59.701,13.956-66.749,44.234c-7.302,31.369,12.208,62.718,43.577,70.02
	c7.887,1.836,15.773,1.974,23.276,0.657C361.427,456.605,360.337,456.392,359.246,456.138z"/>
<circle style="fill:#9266CC;" cx="160.574" cy="226.462" r="58.316"/>
<path style="fill:#7B54BA;" d="M167.361,283.256c-31.369-7.302-50.879-38.651-43.577-70.02
	c5.467-23.481,24.408-40.315,46.744-44.234c-30.249-5.265-59.701,13.956-66.749,44.234c-7.302,31.369,12.208,62.718,43.577,70.02
	c7.887,1.836,15.773,1.974,23.276,0.657C169.542,283.724,168.452,283.51,167.361,283.256z"/>
<circle style="fill:#AA8DD8;" cx="231.084" cy="283.868" r="58.316"/>
<path style="fill:#987FC9;" d="M237.617,340.667c-31.369-7.302-50.879-38.652-43.577-70.02
	c5.466-23.481,24.407-40.315,46.744-44.234c-30.249-5.265-59.701,13.956-66.749,44.234c-7.302,31.369,12.208,62.718,43.577,70.02
	c7.887,1.836,15.773,1.974,23.276,0.657C239.797,341.135,238.707,340.921,237.617,340.667z"/>
<circle style="fill:#AA8DD8;" cx="322.099" cy="322.178" r="58.316"/>
<path style="fill:#987FC9;" d="M328.632,378.98c-31.369-7.302-50.879-38.652-43.577-70.02c5.466-23.481,24.407-40.315,46.744-44.234
	c-30.249-5.265-59.701,13.956-66.749,44.234c-7.302,31.369,12.208,62.718,43.577,70.02c7.887,1.835,15.773,1.974,23.276,0.657
	C330.812,379.447,329.722,379.233,328.632,378.98z"/>
<path d="M468.72,345.373c20.653-54.545-35.431-107.568-89.04-82.979c1.644-4.781,2.701-9.503,3.243-14.821
	c0.419-4.122-2.583-7.803-6.705-8.222c-4.124-0.422-7.803,2.583-8.223,6.705c-0.86,8.487-3.717,16.215-8.101,22.885
	c-19.769-14.651-45.776-16.822-67.437-6.544c-4.622-13.319-13.399-24.678-24.606-32.454c9.88-45.085,70.486-54.283,93.57-14.382
	c2.076,3.586,6.664,4.811,10.251,2.737c3.587-2.075,4.812-6.665,2.736-10.251c-3.086-5.334-6.907-10.151-11.279-14.369
	c25.84-47.091-13.024-104.073-66.478-96.824c0.995-20.492-3.481-38.467-6.563-48.13c-1.288-4.038-4.29-7.248-8.237-8.807
	c-3.971-1.568-8.388-1.272-12.121,0.812c-16.684,9.325-30.684,20.889-41.637,34.388c-9.182-13.399-19.649-23.227-26.921-29.182
	c-6.904-5.65-17.254-3.525-21.424,4.383c-17.72,33.611-19.143,63.966-14.689,88.057C109.584,85.621,49.069,66.323,23.736,60.184
	C13.593,57.733,3.769,64.888,2.941,75.223L0.05,111.247c-0.774,9.655,7.504,17.653,17.087,16.542
	c48.122-5.575,92.329,12.47,125.532,33.005c-35.898-10.147-72.662-4.699-106.699,15.916c-7.661,4.638-9.146,15.102-3.104,21.647
	c6.374,6.906,16.807,16.772,30.727,25.141c-12.827,11.736-23.538,26.399-31.857,43.607c-3.895,8.059,0.559,17.649,9.191,19.846
	c7.743,1.972,18.672,4.032,31.289,4.371c-21.505,43.642,10.313,94.862,59.059,94.862c17.131,0,33.345-6.757,45.406-18.226
	c10.693,49.697,71.269,68.988,108.82,34.708c1.43,26.784,19.303,51.083,45.955,59.442c3.955,1.24,8.163-0.96,9.404-4.913
	c1.239-3.953-0.959-8.163-4.912-9.404c-26.215-8.222-41.277-36.34-33.507-62.731c29.177,8.414,59.715-4.314,74.729-29.378
	c38.313,22.793,30.569,79.092-10.716,92.127c-3.951,1.247-6.144,5.461-4.896,9.413c1.25,3.956,5.469,6.142,9.413,4.895
	c8.994-2.84,17.142-7.56,23.996-13.679c20.241,25.372,57.137,32.692,86.092,14.674C527.466,434.23,520.31,364.05,468.72,345.373z
	 M279.301,270.676c-17.479,14.129-26.225,36.049-24.103,57.567c-39.918,22.47-87.458-15.544-73.278-59.814
	c11.537-35.677,56.78-47.344,83.967-20.681C272.631,254.373,277.039,262.341,279.301,270.676z M254.223,222.684
	c-9.439-3.678-19.851-5.135-29.58-4.283c-2.859-22.826-17.371-42.677-38.589-52.072c0.196-0.783,1.632-3.902,2.146-4.934
	c10.055-20.071,32.365-31.346,54.624-27.227c0.01,0.002,2.326,0.477,2.326,0.485c22.719,5.283,39.297,26.035,39.295,49.397
	C269.522,192.685,258.857,206.643,254.223,222.684z M316.933,112.569c31.7,7.379,48.499,42.48,34.128,71.823
	c-14.901-8.873-33.77-11.859-51.91-6.618c-1.975-20.836-13.957-39.355-31.339-49.884
	C280.482,114.017,299.363,108.479,316.933,112.569z M192.528,58.257c25.056,20.896,22.472,32.204,34.92,32.707
	c14.026,0.601,11.597-15.551,48.679-36.618c2.976,9.641,7.06,27.16,5.207,46.466c-10.512,4.142-20.28,11.161-27.716,20.626
	c-25.453-8.142-54.64-0.252-72.052,22.362C174.07,115.486,177.735,86.785,192.528,58.257z M15.411,112.884
	c-0.182,0.023-0.421-0.197-0.404-0.438c3.098-38.614,2.643-36.667,3.644-37.391c1.627-1.182,76.956,15.523,140.494,78.481
	C116.469,125.169,66.741,106.937,15.411,112.884z M159.325,175.637c26.254,0,47.959,20.204,50.552,45.767
	c-24.635,8.079-42.275,29.713-45.034,55.572c-20.12,2.234-40.463-7.908-50.405-26.787
	C96.667,216.617,120.952,175.637,159.325,175.637z M45.711,272.681c18.814-38.238,35.064-36.779,33.663-50.766
	c-1.24-12.407-12.421-9.193-34.722-32.918c25.396-15.147,51.508-20.896,77.902-17.188c-29.045,19.447-37.822,58.727-19.34,89.013
	c-7.97,3.76-15.123,9.192-20.707,15.351C67.016,277.082,53.296,274.534,45.711,272.681z M175.974,344.507
	c-18.554,34.319-67.309,35.702-87.844,2.702c-17.026-27.357-4.481-62.872,24.681-74.182c6.291,6.309,13.721,11.203,21.943,14.495
	c0.044,0.018,0.088,0.036,0.133,0.054c9.342,3.716,19.804,5.376,30.066,4.472c1.58,12.725,7.038,25.301,15.948,35.449
	C178.323,333.313,176.828,338.8,175.974,344.507z M197.927,381c-6.019-9.67-8.559-20.821-7.407-31.97
	c1.521-3.144,2.798-6.448,3.821-9.888c18.91,12.338,43.241,14.23,64.199,4.285c4.991,14.34,14.817,26.498,27.51,34.356
	C267.933,412.345,218.697,414.377,197.927,381z M319.951,372.635c-69.551-1.011-63.648-103.405,2.134-101.586
	C388.082,272.745,387.654,373.667,319.951,372.635z M383.39,341.931c6.357-19.775,2.918-41.526-9.187-58.432
	c23.663-20.105,59.649-14.552,76.072,11.838c20.189,32.439-1.503,74.279-38.792,77.476
	C405.824,359.943,396.158,349.098,383.39,341.931z M405.151,437.06c9.873-14.059,14.022-32.101,10.815-49.638
	c18.627-2.492,35.322-12.84,45.845-28.576c24.923,7.98,39.995,33.979,33.96,59.906C485.876,461.256,430.407,472.083,405.151,437.06z
	"/>
<g>
</g>
<g>
</g>
<g>
</g>
<g>
</g>
<g>
</g>
<g>
</g>
<g>
</g>
<g>
</g>
<g>
</g>
<g>
</g>
<g>
</g>
<g>
</g>
<g>
</g>
<g>
</g>
<g>
</g>
</svg>
